<?xml version="1.0" encoding="UTF-8"?>
<svg width="24" height="24" viewBox="0 0 24 24" fill="none" xmlns="http://www.w3.org/2000/svg">
  <path d="M21 8.5C21.7 8.5 22.5 7.7 22.5 6.5C22.5 5.3 21.7 4.5 21 4.5C20.5 4.5 20.1 4.8 19.8 5.2C19.2 4.4 18.3 3.8 17.2 3.5C16.8 3.4 16.4 3.3 16 3.3C15.5 3.2 15 3.2 14.5 3.1C14 3.1 13.5 3 13 3H11C10.5 3 10 3.1 9.5 3.1C9 3.1 8.5 3.2 8 3.3C7.6 3.3 7.2 3.4 6.8 3.5C5.7 3.8 4.8 4.4 4.2 5.2C3.9 4.8 3.5 4.5 3 4.5C2.3 4.5 1.5 5.3 1.5 6.5C1.5 7.7 2.3 8.5 3 8.5C3.3 8.5 3.5 8.4 3.8 8.3C3.7 8.6 3.6 8.9 3.6 9.3C3.5 9.8 3.5 10.3 3.5 10.8C3.5 11.3 3.5 11.8 3.6 12.3C3.6 12.7 3.7 13.1 3.8 13.5C3.5 13.9 3.1 14.5 3.1 15.1C3.2 16.3 3.5 17.7 3.9 19.1C4.3 20.5 4.8 21.9 5.5 21.7C5.9 21.6 6.2 20.9 6.4 20.1C7.3 20.6 8.4 21 9.5 21.2C9.9 21.3 10.3 21.3 10.7 21.4C11.1 21.4 11.5 21.4 12 21.4C12.4 21.4 12.8 21.4 13.3 21.4C13.7 21.4 14.1 21.3 14.5 21.2C15.6 21 16.7 20.6 17.6 20.1C17.8 20.9 18.1 21.6 18.5 21.7C19.2 21.9 19.7 20.5 20.1 19.1C20.5 17.7 20.8 16.3 20.9 15.1C20.9 14.5 20.5 13.9 20.2 13.5C20.3 13.1 20.4 12.7 20.4 12.3C20.5 11.8 20.5 11.3 20.5 10.8C20.5 10.3 20.5 9.8 20.4 9.3C20.4 8.9 20.3 8.6 20.2 8.3C20.4 8.4 20.7 8.5 21 8.5Z" fill="#FFC0CB"/>
  <path d="M7.5 9.5C7.5 10.3 6.8 11 6 11C5.2 11 4.5 10.3 4.5 9.5C4.5 8.7 5.2 8 6 8C6.8 8 7.5 8.7 7.5 9.5Z" fill="black"/>
  <path d="M19.5 9.5C19.5 10.3 18.8 11 18 11C17.2 11 16.5 10.3 16.5 9.5C16.5 8.7 17.2 8 18 8C18.8 8 19.5 8.7 19.5 9.5Z" fill="black"/>
  <path d="M15 14.5C15 15.9 13.7 17 12 17C10.3 17 9 15.9 9 14.5C9 13.1 10.3 12 12 12C13.7 12 15 13.1 15 14.5Z" fill="#FFD8E0"/>
</svg>
